<svg xmlns="http://www.w3.org/2000/svg" width="130" height="24" viewBox="0 0 130 24">
  <path id="logo" d="M.12,1.646H4.594L6.378-7.935H15.8l.751-3.968H7.128l1.064-5.581H19.018l.72-3.935H4.438Zm17.771,0h4.474l1.721-9.258h4.067q3.379,0,3.379,3.1c0,1.323-.188,3-.188,4.452a2.943,2.943,0,0,0,.344,1.71h4.318V1.42c-.313-.161-.438-.774-.438-1.484,0-1.774.25-3.774.25-5.1a3.724,3.724,0,0,0-2.753-3.968v-.1c2.972-.774,4.912-2.742,4.912-6.065,0-3.613-2.347-6.129-6.758-6.129H22.209Zm8.1-19.323h4.537a2.628,2.628,0,0,1,2.972,2.9c0,2.548-1.909,3.581-4.067,3.581H24.775ZM37.853,1.646h4.474l4.318-23.065H42.171ZM53.559-17.515H60l-3.6,19.161h4.474l3.6-19.161h6.477l.72-3.9h-17.4ZM69.485,1.646H85.316l.72-3.871H74.678l1.189-6.29h9.762l.72-3.806H76.587l.97-5.194H88.664l.72-3.9H73.8ZM97.8,2.13a9.6,9.6,0,0,0,6.477-2,10.773,10.773,0,0,0,3.5-5.9h-4.412a5.262,5.262,0,0,1-5.225,4.1c-3.786,0-5.037-2.871-5.037-6.065,0-4.774,2.159-10.226,7.04-10.226,2.566,0,3.942,1.258,4.161,3.871h4.412c-.282-5.419-3.692-7.774-8.229-7.774-7.572,0-11.952,7.161-11.952,14.194C88.539-2,91.855,2.13,97.8,2.13Zm10.826-.484H113.1l1.909-10.194h8.229L121.328,1.646H125.8l4.318-23.065h-4.474l-1.69,9.065h-8.229l1.69-9.065h-4.474Z" transform="translate(-0.12 21.87)" fill="#fff"/>
</svg>
